<svg width="18" height="18" viewBox="0 0 18 18" fill="none" xmlns="http://www.w3.org/2000/svg">
<path d="M6.7667 9.97297H4.25319C3.92017 9.97486 3.60143 10.1085 3.36661 10.3446C3.1318 10.5808 3 10.9003 3 11.2333V13.7468C2.99983 13.9114 3.03213 14.0745 3.09505 14.2266C3.15796 14.3787 3.25027 14.5169 3.36667 14.6333C3.48307 14.7497 3.62129 14.842 3.77341 14.905C3.92553 14.9679 4.08857 15.0002 4.25319 15H6.7667C7.09977 15.0003 7.4194 14.8686 7.65552 14.6337C7.89164 14.3988 8.02501 14.0799 8.02638 13.7468V11.2333C8.02655 11.0678 7.99408 10.9039 7.93084 10.751C7.8676 10.5981 7.77481 10.4592 7.65781 10.3422C7.5408 10.2252 7.40187 10.1324 7.24896 10.0692C7.09605 10.0059 6.93217 9.97345 6.7667 9.97362M6.7667 3H4.25319C4.08857 2.99983 3.92553 3.03213 3.77341 3.09505C3.62129 3.15796 3.48307 3.25027 3.36667 3.36667C3.25027 3.48307 3.15796 3.62129 3.09505 3.77341C3.03213 3.92553 2.99983 4.08857 3 4.25319V6.7667C2.99965 7.09977 3.13137 7.4194 3.36628 7.65552C3.60118 7.89164 3.92012 8.02501 4.25319 8.02638H6.7667C6.93217 8.02655 7.09605 7.99408 7.24896 7.93084C7.40187 7.8676 7.5408 7.77481 7.65781 7.65781C7.77481 7.5408 7.8676 7.40187 7.93084 7.24896C7.99408 7.09605 8.02655 6.93217 8.02638 6.7667V4.25319C8.02501 3.92012 7.89164 3.60118 7.65552 3.36628C7.4194 3.13137 7.09977 2.99965 6.7667 3ZM13.7468 3H11.2333C10.9002 2.99965 10.5806 3.13137 10.3445 3.36628C10.1084 3.60118 9.975 3.92012 9.97362 4.25319V6.7667C9.97379 7.10074 10.1066 7.42104 10.3428 7.65724C10.579 7.89344 10.8993 8.02621 11.2333 8.02638H13.7468C14.0799 8.02501 14.3988 7.89164 14.6337 7.65552C14.8686 7.4194 15.0003 7.09977 15 6.7667V4.25319C15.0002 4.08857 14.9679 3.92553 14.905 3.77341C14.842 3.62129 14.7497 3.48307 14.6333 3.36667C14.5169 3.25027 14.3787 3.15796 14.2266 3.09505C14.0745 3.03213 13.9114 2.99983 13.7468 3Z" stroke="white" stroke-width="1.25" stroke-linecap="round" stroke-linejoin="round"/>
<path d="M12.4821 10.1777V14.7935M10.1787 12.4908H14.7945" stroke="white" stroke-width="1.25" stroke-miterlimit="10" stroke-linecap="round"/>
</svg>
