<svg width="18" height="18" viewBox="0 0 18 18" fill="none" xmlns="http://www.w3.org/2000/svg">
<path d="M9 10.6778C9.59095 10.6778 10.1761 10.5697 10.7221 10.3597C11.268 10.1497 11.7641 9.84185 12.182 9.45378C12.5998 9.06571 12.9313 8.60501 13.1575 8.09797C13.3836 7.59094 13.5 7.0475 13.5 6.49869V3.44792C13.5003 3.32955 13.468 3.21307 13.4063 3.10948C13.3447 3.00589 13.2556 2.91861 13.1475 2.85587C13.0394 2.79314 12.9159 2.75702 12.7886 2.75092C12.6613 2.74483 12.5345 2.76896 12.42 2.82105L9 4.40912L5.58 2.82105C5.46554 2.76896 5.33868 2.74483 5.21139 2.75092C5.0841 2.75702 4.96059 2.79314 4.8525 2.85587C4.74442 2.91861 4.65533 3.00589 4.59365 3.10948C4.53198 3.21307 4.49975 3.32955 4.5 3.44792V6.49869C4.5 7.0475 4.6164 7.59094 4.84254 8.09797C5.06869 8.60501 5.40016 9.06571 5.81802 9.45378C6.23588 9.84185 6.73196 10.1497 7.27792 10.3597C7.82389 10.5697 8.40905 10.6778 9 10.6778ZM9 10.6778V16.25M9 16.25L12.75 12.7674M9 16.25L5.25 12.7674" stroke="white" stroke-width="1.4" stroke-linecap="round" stroke-linejoin="round"/>
</svg>
