<svg width="18" height="18" viewBox="0 0 18 18" fill="none" xmlns="http://www.w3.org/2000/svg">
<path d="M5.5 13.75C6.325 13.75 7 14.425 7 15.25C7 16.075 6.325 16.75 5.5 16.75C4.675 16.75 4 16.075 4 15.25C4 14.425 4.675 13.75 5.5 13.75ZM13 13.75C13.825 13.75 14.5 14.425 14.5 15.25C14.5 16.075 13.825 16.75 13 16.75C12.175 16.75 11.5 16.075 11.5 15.25C11.5 14.425 12.175 13.75 13 13.75ZM5.65 11.35C5.65 11.425 5.725 11.5 5.8 11.5H14.5V13H5.5C4.675 13 4 12.325 4 11.5C4 11.2 4.075 10.975 4.15 10.75L5.125 8.95L2.5 3.25H1V1.75H3.475L6.7 8.5H11.95L14.875 3.25L16.15 4L13.225 9.25C13 9.7 12.475 10 11.95 10H6.325L5.65 11.2V11.35ZM7.3 1C7.9 1 8.35 1.45 8.35 2.05C8.35 2.65 7.9 3.1 7.3 3.1C6.7 3.1 6.25 2.65 6.25 2.05C6.25 1.45 6.775 1 7.3 1ZM11.2 7C10.6 7 10.15 6.55 10.15 5.95C10.15 5.35 10.6 4.9 11.2 4.9C11.8 4.9 12.25 5.35 12.25 5.95C12.25 6.55 11.725 7 11.2 7ZM7.15 7L6.25 6.1L11.35 1L12.25 1.9L7.15 7Z" fill="white"/>
</svg>
