<svg width="18" height="18" viewBox="0 0 18 18" fill="none" xmlns="http://www.w3.org/2000/svg">
<path d="M14 15H8V11H7V15H4V11H3V15C3 15.2652 3.10536 15.5196 3.29289 15.7071C3.48043 15.8946 3.73478 16 4 16H14C14.2652 16 14.5196 15.8946 14.7071 15.7071C14.8946 15.5196 15 15.2652 15 15V11H14V15Z" fill="white"/>
<path d="M16.895 6.635L14.855 2.555C14.7722 2.38839 14.6446 2.24819 14.4865 2.15014C14.3284 2.05209 14.146 2.0001 13.96 2H4.04001C3.85397 2.0001 3.67164 2.05209 3.51353 2.15014C3.35542 2.24819 3.2278 2.38839 3.14501 2.555L1.10501 6.635C1.03536 6.77475 0.999396 6.92886 1.00001 7.085V8.625C0.999551 8.85865 1.08093 9.08509 1.23001 9.265C1.45034 9.51757 1.72246 9.71974 2.02787 9.85778C2.33329 9.99582 2.66485 10.0665 3.00001 10.065C3.54689 10.0659 4.0771 9.87674 4.50001 9.53C4.92291 9.87694 5.453 10.0666 6.00001 10.0666C6.54701 10.0666 7.0771 9.87694 7.50001 9.53C7.92291 9.87694 8.453 10.0666 9.00001 10.0666C9.54701 10.0666 10.0771 9.87694 10.5 9.53C10.9229 9.87694 11.453 10.0666 12 10.0666C12.547 10.0666 13.0771 9.87694 13.5 9.53C13.9721 9.91761 14.5761 10.1071 15.185 10.0586C15.7938 10.0101 16.3602 9.72744 16.765 9.27C16.9159 9.09078 16.9991 8.86427 17 8.63V7.085C17.0006 6.92886 16.9647 6.77475 16.895 6.635ZM7.50001 7.2V7.96L7.09001 8.5C6.96415 8.67155 6.79966 8.81105 6.60985 8.9072C6.42005 9.00335 6.21028 9.05346 5.99751 9.05346C5.78474 9.05346 5.57496 9.00335 5.38516 8.9072C5.19536 8.81105 5.03087 8.67155 4.90501 8.5L4.50001 7.94V7.2L5.79501 3H8.00001L7.50001 7.2ZM13.5 7.94L13.095 8.5C12.9691 8.67155 12.8047 8.81105 12.6149 8.9072C12.4251 9.00335 12.2153 9.05346 12.0025 9.05346C11.7897 9.05346 11.58 9.00335 11.3902 8.9072C11.2004 8.81105 11.0359 8.67155 10.91 8.5L10.5 7.94V7.2L10 3H12.225L13.5 7.2V7.94Z" fill="white"/>
</svg>
