<svg width="18" height="18" viewBox="0 0 18 18" fill="none" xmlns="http://www.w3.org/2000/svg">
<path d="M12 8C12 9.66 10.66 11 9 11C7.34 11 6 9.66 6 8C6 6.34 7.34 5 9 5C10.66 5 12 6.34 12 8Z" fill="white"/>
<path fill-rule="evenodd" clip-rule="evenodd" d="M17 9C17 13.42 13.42 17 9 17C4.58 17 1 13.42 1 9C1 4.58 4.58 1 9 1C13.42 1 17 4.58 17 9ZM5 14.75C5.16 14.484 6.71 12 8.99 12C11.26 12 12.82 14.49 12.98 14.75C13.9099 14.107 14.6696 13.2477 15.194 12.2461C15.7183 11.2445 15.9915 10.1305 15.99 9C15.99 5.13 12.86 2 8.99 2C5.12 2 1.99 5.13 1.99 9C1.99 11.38 3.18 13.49 5 14.75Z" fill="white"/>
</svg>
